<svg xmlns="http://www.w3.org/2000/svg" viewBox="0 0 510.43 521.46"><defs><style>.cls-1{fill:#4db6f7;}.cls-2{font-size:45.09px;}.cls-2,.cls-3{font-family:MyriadPro-Regular, Myriad Pro;}.cls-3{font-size:38.19px;}.cls-4{fill:none;stroke:#000;stroke-linecap:round;stroke-miterlimit:10;}</style></defs><g id="Слой_2" data-name="Слой 2"><g id="Слой_2-2" data-name="Слой 2"><path class="cls-1" d="M68.17,273.46a181,181,0,0,1,181-181v181Z"/><polygon class="cls-1" points="430.17 273.46 249.17 182.46 249.17 273.46 430.17 273.46"/><rect class="cls-1" x="68.17" y="273.46" width="181" height="180"/><text class="cls-2" transform="translate(267.43 37.74)">y</text><text class="cls-2" transform="translate(489.55 258.19)">x</text><text class="cls-3" transform="translate(418.55 257.92)">R</text><text class="cls-3" transform="translate(259.55 95.92)">R</text><text class="cls-3" transform="translate(32.55 263.92)">-R</text><text class="cls-3" transform="translate(257.55 463.92)">-R</text><text class="cls-3" transform="translate(314.55 256.92)">R/2</text><text class="cls-3" transform="translate(259.55 185.92)">R/2</text><text class="cls-3" transform="translate(124.55 260.92)">-R/2</text><text class="cls-3" transform="translate(258.55 373.92)">-R/2</text><line class="cls-4" x1="430.17" y1="270.46" x2="430.17" y2="276.46"/><line class="cls-4" x1="249.17" y1="520.96" x2="249.17" y2="37.96"/><polygon points="248.67 24.62 253.1 32.29 257.53 39.96 248.67 39.96 239.81 39.96 244.24 32.29 248.67 24.62"/><line class="cls-4" x1="0.5" y1="273.29" x2="483.5" y2="273.29"/><polygon points="496.84 272.79 489.17 277.22 481.5 281.64 481.5 272.79 481.5 263.93 489.17 268.36 496.84 272.79"/><line class="cls-4" x1="246.17" y1="92.46" x2="252.17" y2="92.46"/><line class="cls-4" x1="246.17" y1="182.46" x2="252.17" y2="182.46"/><line class="cls-4" x1="252.17" y1="453.46" x2="246.17" y2="453.46"/><line class="cls-4" x1="252.17" y1="363.46" x2="246.17" y2="363.46"/><line class="cls-4" x1="159.17" y1="276.46" x2="159.17" y2="270.46"/><line class="cls-4" x1="339.17" y1="270.46" x2="339.17" y2="276.46"/><line class="cls-4" x1="430.17" y1="270.46" x2="430.17" y2="276.46"/><line class="cls-4" x1="68.17" y1="276.46" x2="68.17" y2="270.46"/></g></g></svg>